HIERARCHY
ROOT Hips
{
  OFFSET 54.7065 91.5514 35.627
  CHANNELS 6 Xposition Yposition Zposition Zrotation Xrotation Yrotation
  JOINT spine
  {
    OFFSET 0 6.84637 0.3937
    CHANNELS 3 Zrotation Xrotation Yrotation
    JOINT spine1
    {
      OFFSET 0 9.49621 0
      CHANNELS 3 Zrotation Xrotation Yrotation
      JOINT spine2
      {
        OFFSET 0 9.09909 0
        CHANNELS 3 Zrotation Xrotation Yrotation
        JOINT Neck
        {
          OFFSET 0 23.3612 1.11378
          CHANNELS 3 Zrotation Xrotation Yrotation
          JOINT Head
          {
            OFFSET 0 7.05802 0
            CHANNELS 3 Zrotation Xrotation Yrotation
            End Site
            {
              OFFSET 0 17.0844 -5.63418
            }
          }
        }
        JOINT RightShoulder
        {
          OFFSET -3.83136 9.82631 -0.533491
          CHANNELS 3 Zrotation Xrotation Yrotation
          JOINT RightArm
          {
            OFFSET 0 12.8881 0
            CHANNELS 3 Zrotation Xrotation Yrotation
            JOINT RightArmRoll
            {
              OFFSET 0 6.50617 0
              CHANNELS 3 Zrotation Xrotation Yrotation
              JOINT RightForeArm
              {
                OFFSET 0 18.9501 0
                CHANNELS 3 Zrotation Xrotation Yrotation
                JOINT RightForeArmRoll
                {
                  OFFSET 0 7.30093 0
                  CHANNELS 3 Zrotation Xrotation Yrotation
                  JOINT RightHand
                  {
                    OFFSET 0 14.6514 0
                    CHANNELS 3 Zrotation Xrotation Yrotation
                    End Site
                    {
                      OFFSET 0 0 0
                    }
                  }
                }
              }
            }
          }
        }
        JOINT LeftShoulder
        {
          OFFSET 3.83136 9.82631 -0.533491
          CHANNELS 3 Zrotation Xrotation Yrotation
          JOINT LeftArm
          {
            OFFSET 0 12.8881 0
            CHANNELS 3 Zrotation Xrotation Yrotation
            JOINT LeftArmRoll
            {
              OFFSET 0 6.50617 0
              CHANNELS 3 Zrotation Xrotation Yrotation
              JOINT LeftForeArm
              {
                OFFSET 0 18.9501 0
                CHANNELS 3 Zrotation Xrotation Yrotation
                JOINT LeftForeArmRoll
                {
                  OFFSET 0 7.30093 0
                  CHANNELS 3 Zrotation Xrotation Yrotation
                  JOINT LeftHand
                  {
                    OFFSET 0 14.6514 0
                    CHANNELS 3 Zrotation Xrotation Yrotation
                    End Site
                    {
                      OFFSET 0 0 0
                    }
                  }
                }
              }
            }
          }
        }
      }
    }
  }
  JOINT RightUpLeg
  {
    OFFSET -6.06837 -1.11278 -0.933477
    CHANNELS 3 Zrotation Xrotation Yrotation
    JOINT RightUpLegRoll
    {
      OFFSET 0 17.1796 0
      CHANNELS 3 Zrotation Xrotation Yrotation
      JOINT RightLeg
      {
        OFFSET 0 -21.2743 0
        CHANNELS 3 Zrotation Xrotation Yrotation
        JOINT RightLegRoll
        {
          OFFSET 0 21.3439 0
          CHANNELS 3 Zrotation Xrotation Yrotation
          JOINT RightFoot
          {
            OFFSET 0 17.7652 0
            CHANNELS 3 Zrotation Xrotation Yrotation
            JOINT RightToeBase
            {
              OFFSET 0 14.8508 0
              CHANNELS 3 Zrotation Xrotation Yrotation
              End Site
              {
                OFFSET 0.0062947 7.19214 -0.829005
              }
            }
          }
        }
      }
    }
  }
  JOINT LeftUpLeg
  {
    OFFSET 6.06837 -1.11278 -0.933477
    CHANNELS 3 Zrotation Xrotation Yrotation
    JOINT LeftUpLegRoll
    {
      OFFSET 0 17.1797 0
      CHANNELS 3 Zrotation Xrotation Yrotation
      JOINT LeftLeg
      {
        OFFSET 0 21.2742 0
        CHANNELS 3 Zrotation Xrotation Yrotation
        JOINT LeftLegRoll
        {
          OFFSET 0 21.5412 0
          CHANNELS 3 Zrotation Xrotation Yrotation
          JOINT LeftFoot
          {
            OFFSET 0 17.5679 0
            CHANNELS 3 Zrotation Xrotation Yrotation
            JOINT LeftToeBase
            {
              OFFSET 0 14.8508 0
              CHANNELS 3 Zrotation Xrotation Yrotation
              End Site
              {
                OFFSET -0.0282102 7.19214 -0.829005
              }
            }
          }
        }
      }
    }
  }
}
MOTION
Frames: 4
Frame Time: 0.00208333
52.8183 58.684 -6.58268 -3.08802 0.49024 -3.53584 0.374222 -1.08884 0.225282 0.750643 1.83624 0.415871 0.746311 3.48121 0.403562 3.48929 8.63908 0.874494 -3.73362 0.965984 1.50542 74.0433 2.57525 -0.578696 101.333 26.5843 -14.6445 8.0321e-007 3.45359e-007 -4.63779e-006 20.3654 34.1894 -6.90426 1.26791e-006 -5.54925e-006 -2.99998 8.02904 -4.95114 0.697521 -57.5742 -6.62325 4.03171 -121.527 30.8219 8.82931 -4.11908e-007 4.69347e-008 2.46426e-006 -20.477 18.7254 4.09415 2.41175e-006 1.47011e-006 2.99999 -8.02935 -4.95148 -0.69776 162.095 81.6703 21.5196 -180 7.01504e-015 178.752 175.758 73.6782 -179.633 -5.53619e-007 2.66626e-006 1.68232 -18.0933 66.0277 17.9811 8.13649 25.2327 -3.48774 -105.495 71.635 -74.8687 4.54188e-006 -4.6773e-006 -0.834508 7.70436 -79.8722 10.4014 1.71515e-006 -8.2969e-006 -1.95103 18.2366 66.2482 -18.1712 -8.13649 25.2327 3.48773 
52.8031 58.6957 -6.58531 -3.10114 0.493012 -3.53742 0.377212 -1.08824 0.225484 0.756627 1.83675 0.416273 0.752296 3.48172 0.403864 3.46763 8.67557 0.879426 -3.71853 0.940242 1.50599 74.0359 2.58587 -0.572922 101.324 26.5813 -14.6523 8.0321e-007 3.45359e-007 -4.63779e-006 20.3715 34.195 -6.90667 1.26791e-006 -5.54925e-006 -2.99998 8.02904 -4.95114 0.697521 -57.5786 -6.60833 4.0223 -121.51 30.8213 8.82446 -4.11908e-007 4.69346e-008 2.46426e-006 -20.48 18.7239 4.094 2.41175e-006 1.47011e-006 2.99999 -8.02935 -4.95148 -0.69776 162.144 81.6705 21.478 -180 7.01504e-015 178.752 175.733 73.6733 -179.614 -5.53619e-007 2.66626e-006 1.68232 -18.0979 66.034 17.9862 8.13649 25.2327 -3.48774 -105.472 71.6287 -74.8812 4.54188e-006 -4.6773e-006 -0.834895 7.71046 -79.8659 10.4052 1.71515e-006 -8.2969e-006 -1.95146 18.235 66.2461 -18.1689 -8.13649 25.2327 3.48773 
52.7665 58.6964 -6.56488 -3.11488 0.495802 -3.53905 0.380336 -1.08766 0.225677 0.762879 1.83717 0.416679 0.758549 3.48214 0.404166 3.44584 8.71238 0.884421 -3.70321 0.914559 1.50662 74.0287 2.59683 -0.567022 101.315 26.5779 -14.6597 8.0321e-007 3.45359e-007 -4.63779e-006 20.3776 34.2007 -6.90912 1.26791e-006 -5.54925e-006 -2.99998 8.02904 -4.95114 0.697521 -57.5834 -6.59304 4.01267 -121.493 30.8205 8.81895 -4.11908e-007 4.69346e-008 2.46426e-006 -20.4828 18.7225 4.0939 2.41175e-006 1.47011e-006 2.99999 -8.02935 -4.95148 -0.69776 162.195 81.6707 21.4344 -180 7.01504e-015 178.752 175.708 73.6682 -179.595 -5.53619e-007 2.66626e-006 1.68232 -18.1027 66.0406 17.9915 8.13649 25.2327 -3.48774 -105.448 71.622 -74.8941 4.54188e-006 -4.6773e-006 -0.835315 7.717 -79.8594 10.4093 1.71515e-006 -8.2969e-006 -1.95191 18.2334 66.2439 -18.1666 -8.13649 25.2327 3.48773 
52.7802 58.6972 -6.56894 -3.12905 0.498606 -3.54072 0.383553 -1.08712 0.225863 0.769319 1.83752 0.417087 0.764989 3.48249 0.404466 3.42396 8.74943 0.88946 -3.68773 0.888917 1.5073 74.0217 2.60804 -0.561034 101.305 26.5744 -14.6668 8.0321e-007 3.45359e-007 -4.63779e-006 20.3836 34.2065 -6.9116 1.26791e-006 -5.54925e-006 -2.99998 8.02904 -4.95114 0.697521 -57.5884 -6.57751 4.0029 -121.475 30.8195 8.81298 -4.11909e-007 4.69346e-008 2.46426e-006 -20.4854 18.7213 4.09385 2.41175e-006 1.47011e-006 2.99999 -8.02935 -4.95148 -0.69776 162.248 81.6708 21.3892 -180 7.01504e-015 178.752 175.682 73.663 -179.575 -5.53619e-007 2.66626e-006 1.68232 -18.1076 66.0473 17.997 8.13649 25.2327 -3.48774 -105.424 71.6152 -74.9073 4.54188e-006 -4.6773e-006 -0.835759 7.72384 -79.8527 10.4136 1.71515e-006 -8.2969e-006 -1.95237 18.2317 66.2416 -18.1642 -8.13649 25.2327 3.48773 
